<svg version="1.1" xmlns="http://www.w3.org/2000/svg" style="display: block;" viewBox="0 0 2048 1835" width="1000" height="896" preserveAspectRatio="none">
<path transform="translate(0,0)" fill="rgb(255,255,255)" d="M 0 0 L 2048 0 L 2048 1835 L 0 1835 L 0 0 z"/>
<path transform="translate(0,0)" fill="rgb(59,80,98)" d="M 866.466 112.469 L 868.377 112.507 C 870.438 116.426 869.764 198.418 869.794 210.267 L 869.81 419 L 869.689 949.932 L 665.387 950.212 L 608.083 950.309 C 593.233 950.318 578.838 949.924 564.181 951.893 C 550.955 953.597 540.717 958.108 530.874 966.899 C 507.802 987.506 508.231 1029.32 538.339 1043.42 C 547.51 1047.71 554.028 1047.86 563.886 1048.27 C 558.083 1045.48 554.264 1043.47 549.379 1039.13 C 532.103 1023.81 542.934 992.966 566.053 991.434 C 578.704 990.596 591.481 990.901 604.278 990.924 L 675.288 991.044 L 912.147 990.841 C 911.408 938.794 912.006 885.177 911.975 833.024 L 911.935 534.012 L 911.78 439.461 C 911.718 423.483 910.276 399.522 913.1 385.072 C 917.647 361.809 955.689 359.456 964.663 381.969 C 966.744 387.191 966.79 392.134 966.803 397.38 C 966.89 433.714 966.826 470.038 966.86 506.366 L 966.959 731.902 L 967.083 918.614 C 967.114 951.634 967.314 984.681 966.928 1017.69 C 966.726 1035.02 952.975 1042.94 939.166 1049.23 C 966.871 1048.63 997.497 1049.65 1025.5 1049.72 L 1205.96 1049.81 L 1816.4 1049.87 C 1804.63 1156.15 1771.83 1259.03 1719.89 1352.49 C 1690.98 1402.71 1663.69 1444.71 1626.12 1489.06 C 1477.8 1666.95 1263.91 1777.39 1033 1795.31 C 980.477 1799.67 917.398 1796.55 865.508 1789.31 C 704.437 1767.8 552.796 1700.95 428.258 1596.56 C 256.56 1451.07 144.647 1249.13 126.271 1023.51 C 107.187 798.819 179.715 575.952 327.381 405.526 C 441.413 271.646 593.901 176.122 764.121 131.938 C 797.838 123.25 831.619 115.265 866.466 112.469 z"/>
<path transform="translate(0,0)" fill="rgb(0,168,121)" d="M 1793.18 265.355 C 1795.07 265.136 1796.62 265.186 1798.43 265.045 C 1839.89 261.824 1876.05 296.855 1876.25 338.073 C 1876.37 360.818 1868.46 376.773 1852.57 393.039 C 1820.92 425.419 1788.65 457.195 1756.71 489.309 L 1520.66 725.044 L 1416.09 829.729 C 1398.75 847.055 1379.84 866.936 1361.38 882.727 C 1347.97 893.502 1334.49 898.364 1317.72 898.991 C 1274.43 900.608 1250.26 868.108 1221.67 839.898 C 1200.82 819.217 1179.84 798.671 1158.72 778.259 C 1130.4 751.413 1081.61 714.911 1079.01 675.113 C 1077.86 656.371 1084.32 637.958 1096.94 624.054 C 1110.84 608.426 1130.48 599.11 1151.38 598.242 C 1192.86 596.374 1210.82 623.346 1237.87 649.371 C 1263 673.552 1286.83 699.424 1312.42 723.124 C 1318.57 715.339 1331.36 703.132 1338.67 695.804 L 1385.49 648.97 L 1536.24 498.503 C 1609.39 425.52 1683.24 351.43 1756.93 278.897 C 1765.3 270.662 1781.86 266.941 1793.18 265.355 z"/>
<path transform="translate(0,0)" fill="rgb(0,168,121)" d="M 978.143 106.932 C 980.117 106.877 982.09 106.836 984.064 106.81 C 1154.94 104.686 1344.99 172.664 1480.19 274.853 C 1518.66 303.928 1544.67 328.501 1578.72 361.783 L 1524.64 416.916 C 1507.51 434.277 1490.25 451.508 1472.86 468.608 C 1472.16 467.841 1471.46 467.082 1470.74 466.332 C 1341.06 333.287 1163.82 257.24 978.045 254.935 L 978.143 106.932 z"/>
<path transform="translate(0,0)" fill="rgb(0,168,121)" d="M 1738.59 604.672 C 1743.26 607.898 1754.79 636.934 1757.41 643.174 C 1789.65 721.504 1809.7 804.312 1816.86 888.715 C 1818.22 905.096 1818.59 923.494 1819.18 940.028 C 1781.62 940.318 1744.06 940.39 1706.5 940.243 L 1667.36 940.142 C 1663.41 860.959 1652.44 793.179 1624.24 718.126 L 1738.59 604.672 z"/>
</svg>